<svg xmlns="http://www.w3.org/2000/svg" xmlns:xlink="http://www.w3.org/1999/xlink" id="Capa_1" x="0px" y="0px" viewBox="0 0 300 26" style="enable-background:new 0 0 300 26;" xml:space="preserve"><style type="text/css">	.st0{fill:#FFFFFF;}</style><path class="st0" d="M29.2,1v0.7h-1.9v23.2h1.9v0.7H18.5v-0.7h1.9V3h-0.1L15,25.6h-4.4L4.5,2.9H4.3v22h1.9v0.7H1.5v-0.7h1.9V1.7H1.5  V1h9.5l4.7,18.1L19.8,1H29.2z"></path><path class="st0" d="M48.7,1v0.7h-1.9v23.2h1.9v0.7H38v-0.7h1.9V1.7H38V1H48.7z"></path><path class="st0" d="M79.2,9.8h-0.7c-1.9-5.7-3-8.1-6.2-8.1h-0.4v23.1h3v0.7H62.1v-0.7h3V1.7h-0.5c-3.2,0-4.4,2.6-6.2,8.1h-0.7  L58.2,1h20.7L79.2,9.8L79.2,9.8z"></path><path class="st0" d="M99.2,1v0.7h-2v10.9h7V1.7h-2.1V1h11v0.7H111v23.2h2.1v0.7h-11v-0.7h2.1V13.5h-7v11.4h2v0.7H88.3v-0.7h2.1V1.7  h-2.1V1H99.2L99.2,1z"></path><path class="st0" d="M134.2,0.6c7.5,0,11.4,4.6,11.4,12.6s-3.7,12.7-11.8,12.7s-11.6-4.5-11.6-12.2S126.4,0.6,134.2,0.6z   M138.4,12.1c0-7.2-0.2-10.8-4.4-10.8c-4.2,0-4.5,3.7-4.5,10.9v2.5c0,6.6,0.4,10.4,4.5,10.4s4.4-3.4,4.4-10.4  C138.4,14.7,138.4,12.1,138.4,12.1z"></path><path class="st0" d="M165.7,1v0.7h-2v10.9h7V1.7h-2.1V1h11v0.7h-2.1v23.2h2.1v0.7h-11v-0.7h2.1V13.5h-7v11.4h2v0.7h-10.9v-0.7h2.1  V1.7h-2.1V1H165.7z"></path><path class="st0" d="M199.9,17.3H193l-2.7,7.6h2.6v0.7h-5.4v-0.7h1.6l8.9-24.1h2.9l8.8,24.1h1.6v0.7H200v-0.7h2.5L199.9,17.3z   M193.3,16.5h6.3l-3-9.2L193.3,16.5z"></path><path class="st0" d="M225.5,11.8v2.8c0,6.5,1.9,10.6,5.7,10.6c2.8,0,5.1-2.9,7.1-7.5h0.6l-0.2,7.8h-0.4c-0.2-0.5-0.4-0.7-0.9-0.7  c-1.2,0-3.1,1.1-7,1.1c-7.4,0-12-3.9-12-12.3s4.9-13,12.1-13c3.6,0,5.3,1.1,6.6,1.1c0.6,0,0.7-0.2,0.9-0.7h0.4l0.3,7.6H238  c-1.9-4.3-4-7.3-7-7.3C227.4,1.3,225.5,4.6,225.5,11.8L225.5,11.8z"></path><path class="st0" d="M259.7,1v0.7h-1.9v11.1l0.3-0.1l9.9-11h-2.8V1h6.1v0.7h-2.1l-6,6.7l8.4,16.5h1.9v0.7h-11.3v-0.7h1.7l-5.8-11.2  l-0.3,0.1v11.1h1.9v0.7H249v-0.7h1.9V1.7H249V1H259.7L259.7,1z"></path><path class="st0" d="M295.7,21.5c0-2.9-2.2-3.9-6.5-5.1c-4.2-1.2-7.5-2.9-7.5-8.2c0-3.9,2.9-7.6,8.3-7.6c3.2,0,5,1.1,6.2,1.1  c0.6,0,0.8-0.2,1-0.7h0.4l0.2,7.1h-0.6c-1.8-3.2-4.2-6.7-7.8-6.7c-2.5,0-4.3,1.5-4.3,3.5c0,2.6,2.4,3.5,5.9,4.4  c3.9,1.1,8.2,2.4,8.2,8.2c0,5-3.4,8.4-8.6,8.4c-3.4,0-6.3-1.1-7.3-1.1c-0.6,0-0.8,0.4-1.1,1.1H282l-0.3-8.3h0.6  c1.8,3.5,5.2,7.6,9,7.6C293.4,25.2,295.7,24.1,295.7,21.5L295.7,21.5z"></path></svg>