<svg xmlns="http://www.w3.org/2000/svg" viewBox="0 0 48 48" fill="#000000" id="Star-Light--Streamline-Phosphor" height="48" width="48"><desc>Star Light Streamline Icon: https://streamlinehq.com</desc><path d="M47.3644875 18.41038125c-0.3749625 -1.1859187500000001 -1.43619375 -2.0225437499999996 -2.6769 -2.11029375l-12.88198125 -1.04124375 -4.9646437500000005 -12.01605c-0.89956875 -2.1874124999999998 -3.82974375 -2.5807124999999997 -5.2743 -0.70794375 -0.167175 0.21671249999999997 -0.30463125 0.45480000000000004 -0.40873125 0.70794375L16.1932875 15.254568749999999l-12.88198125 1.04551875c-1.2418125 0.0883875 -2.30338125 0.9269625000000001 -2.67688125 2.11456875 -0.38906250000000003 1.18359375 -0.02806875 2.48503125 0.9150937499999999 3.2990812499999995l9.835218750000001 8.4689625 -2.993325 12.668174999999998c-0.28725 1.21239375 0.18455624999999998 2.4784125 1.19518125 3.20713125 0.9989812499999999 0.7401 2.349825 0.7910437499999999 3.4017 0.1282875l11.0111625 -6.7692000000000005 11.0282625 6.779887499999999c1.0518750000000001 0.6627562499999999 2.40271875 0.6118125 3.4016812499999998 -0.1282875 1.01064375 -0.72871875 1.48245 -1.9947375 1.1951999999999998 -3.20713125l-2.993325 -12.668174999999998 9.8181 -8.47965c0.944925 -0.8148 1.3060687500000001 -2.1185062500000003 0.9151125 -3.3033562499999998Zm-2.5956375 1.3619625 -10.41035625 8.979975c-0.3620625 0.3124125 -0.52029375 0.80030625 -0.4105125 1.26575625l3.1814625000000003 13.42505625c0.05713125000000001 0.20776875 -0.02458125 0.4288125 -0.20311875 0.5494875 -0.1617375 0.12504375 -0.38503125000000005 0.13363125 -0.5559 0.021375l-11.69960625 -7.1882625c-0.41184374999999995 -0.25291874999999997 -0.9308812499999999 -0.25291874999999997 -1.342725 0l-11.699625000000001 7.1861250000000005c-0.17086875 0.11225625 -0.39416249999999997 0.10366874999999999 -0.5559 -0.021375 -0.18255 -0.1177125 -0.2688 -0.339375 -0.21380625000000003 -0.54950625l3.18148125 -13.42505625c0.10978125 -0.46545000000000003 -0.04845000000000001 -0.953325 -0.4105125 -1.2657375000000002L3.2193750000000003 19.77020625c-0.16741875 -0.13633125 -0.23008125000000001 -0.36376875 -0.15607500000000002 -0.5665875 0.057168750000000004 -0.19996875 0.2349 -0.34164375 0.44257499999999994 -0.35278125l13.666668750000001 -1.10326875c0.48014999999999997 -0.03898125 0.897975 -0.3436875 1.081875 -0.78894375l5.26610625 -12.74300625c0.14026875 -0.36045000000000005 0.61815 -0.433875 0.860175 -0.13216875 0.03200625 0.03991875 0.057749999999999996 0.0844875 0.07631249999999999 0.13216875l5.26610625 12.74300625c0.18388125 0.44525624999999996 0.6017250000000001 0.7499625 1.081875 0.78894375l13.66665 1.10326875c0.20769374999999998 0.0111375 0.385425 0.1528125 0.44259375 0.35278125 0.07745625 0.20120624999999998 0.019125 0.429375 -0.1453875 0.5687249999999999Z" stroke-width="0.1875"></path></svg>