<svg xmlns="http://www.w3.org/2000/svg" viewBox="0 0 48 48" fill="#000000" id="Shopping-Cart-Simple-Light--Streamline-Phosphor" height="48" width="48"><desc>Shopping Cart Simple Light Streamline Icon: https://streamlinehq.com</desc><path d="M47.260575 11.69941875c-0.23414999999999997 -0.308175 -0.5989875 -0.48905624999999997 -0.9860249999999999 -0.48888750000000003H9.90088125l-2.0401124999999998 -7.3456875c-0.14911875 -0.53529375 -0.6366375 -0.9056062500000001 -1.1923124999999999 -0.9055875H1.7176874999999998c-0.9527625000000001 0.00118125 -1.5469875000000002 1.0333125 -1.069575 1.8578625 0.22100625000000002 0.38173124999999997 0.62848125 0.6169875 1.069575 0.61753125h4.01011875l7.335375 26.3813625c0.5498624999999999 1.95800625 2.3311875 3.3142125 4.3649249999999995 3.32319375h20.3889c2.03679375 -0.00530625 3.8224687500000005 -1.36224375 4.37315625 -3.32319375l5.2870124999999994 -19.035675c0.1011 -0.37434375 0.020925 -0.77443125 -0.21660000000000001 -1.08091875Zm-7.467393749999999 19.4544375c-0.24714375 0.88846875 -1.05399375 1.5049687500000002 -1.976175 1.509975H17.42810625c-0.9260249999999999 -0.00039375 -1.7383125000000001 -0.61783125 -1.9864875 -1.509975l-4.8538125 -17.467950000000002h34.0591875Zm-20.33525625 10.9989375c0 2.22315 -2.40661875 3.6125999999999996 -4.331925 2.5010250000000003 -1.9252875 -1.11155625 -1.9252875 -3.89049375 0 -5.0020500000000006 0.43903125 -0.25348125 0.93703125 -0.386925 1.443975 -0.386925 1.59496875 0 2.88795 1.29298125 2.88795 2.88795Zm21.4533 0c0 2.22315 -2.40661875 3.6125999999999996 -4.331925 2.5010250000000003 -1.9252875 -1.11155625 -1.9252875 -3.89049375 0 -5.0020500000000006 0.43903125 -0.25348125 0.93703125 -0.386925 1.443975 -0.386925 1.59496875 0 2.88795 1.29298125 2.88795 2.88795Z" stroke-width="0.1875"></path></svg>