<svg xmlns="http://www.w3.org/2000/svg" viewBox="0 0 48 48" fill="#000000" id="List-Heart-Light--Streamline-Phosphor" height="48" width="48"><desc>List Heart Light Streamline Icon: https://streamlinehq.com</desc><path d="M0.48 8.9115c0 -0.7352625 0.59604375 -1.3313249999999999 1.3313249999999999 -1.3313249999999999h39.052068750000004c1.02485625 0.00121875 1.6640625 1.11140625 1.15059375 1.99835625 -0.23775000000000002 0.41064375000000003 -0.6760875 0.66373125 -1.15059375 0.66429375H1.8113249999999999c-0.73528125 0 -1.3313249999999999 -0.5960624999999999 -1.3313249999999999 -1.3313249999999999Zm1.3313249999999999 15.53206875h14.20074375c1.02485625 -0.00121875 1.66408125 -1.11140625 1.15059375 -1.9983374999999999 -0.23773125 -0.4106625 -0.6760875 -0.66373125 -1.15059375 -0.66429375H1.8113249999999999c-1.02485625 0.00121875 -1.6640625 1.11140625 -1.15059375 1.9983374999999999 0.23775000000000002 0.4106625 0.6760875 0.66373125 1.15059375 0.66429375Zm17.75094375 11.5381125H1.8113249999999999c-1.02485625 0.00121875 -1.6640625 1.111425 -1.15059375 1.99835625 0.23775000000000002 0.41064375000000003 0.6760875 0.66373125 1.15059375 0.66429375h17.75094375c1.0248374999999998 -0.00121875 1.6640625 -1.11140625 1.150575 -1.99835625 -0.23773125 -0.41064375000000003 -0.67606875 -0.66373125 -1.150575 -0.66429375ZM47.519999999999996 26.66244375c0 7.8326062499999995 -10.921275 13.384218749999999 -11.387231250000001 13.6171875 -0.37439999999999996 0.18691875 -0.8149124999999999 0.18691875 -1.1893125 0 -0.46595625 -0.23296875 -11.387231250000001 -5.78458125 -11.387231250000001 -13.6171875 0 -5.1242625 5.54716875 -8.3269125 9.9849 -5.76478125 0.7783875 0.44939999999999997 1.4577 1.05178125 1.9969875000000001 1.7708249999999999 3.0745500000000003 -4.0994062499999995 9.433893750000001 -3.3332437500000003 11.4468 1.3791 0.3530625 0.8265562499999999 0.5350875 1.71605625 0.5350875 2.61485625Zm-2.6626499999999997 0c0 -3.0745500000000003 -3.3282937500000003 -4.99614375 -5.990925 -3.4588687499999997 -1.2357375 0.71345625 -1.9969875000000001 2.03195625 -1.9969875000000001 3.4588687499999997 -0.00121875 1.02485625 -1.11140625 1.6640625 -1.99835625 1.15059375 -0.41064375000000003 -0.23775000000000002 -0.66373125 -0.6760875 -0.66429375 -1.15059375 0 -3.0745500000000003 -3.3282937500000003 -4.99614375 -5.99094375 -3.4588687499999997 -1.23571875 0.71345625 -1.9969687499999997 2.03195625 -1.9969687499999997 3.4588687499999997 0 3.13970625 2.6138250000000003 5.99094375 4.8082875000000005 7.8215062500000005 1.40895 1.1627625 2.9185499999999998 2.197875 4.510949999999999 3.0931125 1.59290625 -0.8944125 3.10258125 -1.92958125 4.51096875 -3.0931125 2.19444375 -1.8305625 4.80826875 -4.68181875 4.80826875 -7.8215062500000005Z" stroke-width="0.1875"></path></svg>