<svg xmlns="http://www.w3.org/2000/svg" viewBox="0 0 48 48" fill="#000000" id="List-Star-Light--Streamline-Phosphor" height="48" width="48"><desc>List Star Light Streamline Icon: https://streamlinehq.com</desc><path d="M0.48 9.2351625c0 -0.764475 0.6197250000000001 -1.3841999999999999 1.3841999999999999 -1.3841999999999999h40.6032c1.06554375 0.0000375 1.73154375 1.153575 1.1987062499999999 2.07635625 -0.24725625 0.42823125 -0.7042124999999999 0.6920437500000001 -1.1987062499999999 0.6920437500000001H1.8641999999999999c-0.76449375 0.0000375 -1.3841999999999999 -0.61970625 -1.3841999999999999 -1.3841999999999999Zm1.3841999999999999 16.149h12.9192c1.0655625 0 1.731525 -1.1535 1.19874375 -2.0763000000000003 -0.2472375 -0.42824999999999996 -0.7042499999999999 -0.69208125 -1.19874375 -0.6920999999999999H1.8641999999999999c-1.0655625 0.0000375 -1.73154375 1.153575 -1.198725 2.07635625 0.247275 0.42823125 0.7042124999999999 0.6920437500000001 1.198725 0.6920437500000001Zm16.610400000000002 11.996400000000001H1.8641999999999999c-1.0655625 0 -1.731525 1.1535 -1.1987625 2.0763000000000003 0.24725625 0.42824999999999996 0.7042499999999999 0.6920625 1.1987625 0.6920999999999999h16.610400000000002c1.0655625 -0.00005625 1.73154375 -1.153575 1.198725 -2.07635625 -0.247275 -0.42824999999999996 -0.70423125 -0.6920437500000001 -1.198725 -0.6920437500000001Zm28.565268749999998 -10.09543125 -5.41914375 4.4732625 1.65181875 6.67415625c0.2557875 1.0344 -0.7041 1.9577999999999998 -1.7278125 1.6621312499999998 -0.11150625 -0.032212500000000005 -0.2185125 -0.07830000000000001 -0.31850625 -0.13721250000000002L35.085 36.3424125l-6.141243750000001 3.6150562500000003c-0.9180937499999999 0.5408625 -2.0773875 -0.114975 -2.0867250000000004 -1.1805 -0.0010125 -0.11604375 0.0125625 -0.23175 0.040425 -0.34441875l1.6518 -6.67415625 -5.419125 -4.4732625c-0.82183125 -0.67824375 -0.60125625 -1.9918125 0.39703125000000006 -2.3644125000000003 0.12151875000000001 -0.045337499999999996 0.24879374999999998 -0.07338750000000001 0.37811249999999996 -0.08332500000000001l7.1517 -0.55366875 2.747625 -6.3696375000000005c0.42586875 -0.9767625 1.7493937499999999 -1.1262375 2.3823749999999997 -0.26904375 0.061706250000000004 0.08356875 0.1138125 0.1738125 0.155325 0.26904375l2.74764375 6.3696375000000005 7.1517 0.55366875c1.06243125 0.08154375 1.6381875 1.2826125 1.03636875 2.16195 -0.07325625 0.107025 -0.16119375 0.20323125000000003 -0.261225 0.28578749999999997Zm-4.4063625 0.048431249999999995 -4.57479375 -0.35296875c-0.50865 -0.043631249999999996 -0.95199375 -0.36373125 -1.1535 -0.8328187499999999l-1.8202125000000002 -4.191825 -1.8087 4.191825c-0.20148749999999999 0.4690875 -0.64483125 0.7891874999999999 -1.1535 0.8328187499999999l-4.574775000000001 0.35296875 3.4466625000000004 2.8445437499999997c0.4102875 0.33920625 0.5896875 0.88366875 0.4614 1.40034375l-1.06815 4.32331875 4.0049624999999995 -2.35775625c0.43293750000000003 -0.25441875 0.9697125 -0.25441875 1.40265 0l4.00726875 2.35775625 -1.06815 -4.32331875c-0.1282875 -0.516675 0.051112500000000005 -1.0611187499999999 0.4614 -1.40034375Z" stroke-width="0.1875"></path></svg>